<?xml version="1.0" encoding="utf-8"?>
<!-- Generator: Adobe Illustrator 16.0.0, SVG Export Plug-In . SVG Version: 6.00 Build 0)  -->
<!DOCTYPE svg PUBLIC "-//W3C//DTD SVG 1.1//EN" "http://www.w3.org/Graphics/SVG/1.1/DTD/svg11.dtd">
<svg version="1.1" id="Saturn" xmlns="http://www.w3.org/2000/svg" xmlns:xlink="http://www.w3.org/1999/xlink" x="0px" y="0px"
	 width="512px" height="512px" viewBox="0 0 512 512" enable-background="new 0 0 512 512" xml:space="preserve">
<circle id="Background" fill="#323653" cx="256" cy="256" r="255.931"/>
<g id="Stars">
	<g>
		<g>
			<path fill="#E3DFF0" d="M80.676,290.509c0.688,2.574-0.706,5.292-3.109,6.067c-2.402,0.775-4.908-0.681-5.595-3.256
				c-0.687-2.574,0.704-5.292,3.106-6.066C77.481,286.477,79.987,287.935,80.676,290.509z"/>
			<polygon fill="#E3DFF0" points="73.403,280.978 75.394,292.215 79.243,302.852 77.251,291.614 			"/>
			<polygon fill="#E3DFF0" points="66.112,295.212 76.588,292.91 86.532,288.617 76.056,290.92 			"/>
		</g>
		<g>
			<path fill="#E3DFF0" d="M393.27,83.93c1.376,5.146-1.41,10.581-6.217,12.133c-4.808,1.553-9.818-1.362-11.19-6.512
				c-1.375-5.148,1.407-10.584,6.211-12.133C386.881,75.865,391.895,78.781,393.27,83.93z"/>
			<polygon fill="#E3DFF0" points="378.725,64.865 382.706,87.34 390.407,108.613 386.42,86.139 			"/>
			<polygon fill="#E3DFF0" points="364.141,93.335 385.094,88.732 404.983,80.145 384.031,84.752 			"/>
		</g>
		<g>
			<path fill="#E3DFF0" d="M239.537,355.92c0.688,2.572-0.705,5.291-3.108,6.066c-2.404,0.776-4.909-0.681-5.596-3.256
				c-0.687-2.574,0.704-5.292,3.105-6.066C236.342,351.888,238.849,353.346,239.537,355.92z"/>
			<polygon fill="#E3DFF0" points="232.264,346.388 234.255,357.625 238.104,368.263 236.112,357.025 			"/>
			<polygon fill="#E3DFF0" points="224.972,360.623 235.449,358.321 245.393,354.028 234.917,356.331 			"/>
		</g>
		<g>
			<path fill="#E3DFF0" d="M280.505,29.938c1.032,3.86-1.058,7.938-4.665,9.104c-3.605,1.165-7.365-1.022-8.396-4.886
				c-1.031-3.863,1.056-7.941,4.659-9.103C275.711,23.887,279.473,26.075,280.505,29.938z"/>
			<polygon fill="#E3DFF0" points="269.592,15.634 272.579,32.496 278.356,48.457 275.366,31.596 			"/>
			<polygon fill="#E3DFF0" points="258.65,36.994 274.371,33.541 289.293,27.098 273.573,30.555 			"/>
		</g>
		<g>
			<path fill="#E3DFF0" d="M486.582,181.456c1.032,3.86-1.059,7.938-4.665,9.104s-7.366-1.021-8.396-4.886
				c-1.031-3.863,1.056-7.941,4.659-9.103C481.787,175.405,485.55,177.593,486.582,181.456z"/>
			<polygon fill="#E3DFF0" points="475.669,167.151 478.656,184.014 484.434,199.975 481.442,183.114 			"/>
			<polygon fill="#E3DFF0" points="464.728,188.512 480.448,185.058 495.369,178.616 479.65,182.073 			"/>
		</g>
		<g>
			<path fill="#E3DFF0" d="M155.311,426.11c1.691,6.325-1.733,13.007-7.643,14.916c-5.907,1.907-12.068-1.676-13.756-8.005
				c-1.689-6.329,1.731-13.012,7.635-14.915C147.457,416.196,153.62,419.779,155.311,426.11z"/>
			<polygon fill="#E3DFF0" points="137.432,402.677 142.325,430.303 151.789,456.452 146.893,428.827 			"/>
			<polygon fill="#E3DFF0" points="119.506,437.672 145.262,432.013 169.709,421.458 143.955,427.12 			"/>
		</g>
		<g>
			<path fill="#E3DFF0" d="M326.769,467.537c0.645,2.41-0.659,4.955-2.909,5.682c-2.251,0.727-4.598-0.638-5.242-3.049
				c-0.644-2.411,0.659-4.955,2.909-5.683C323.778,463.759,326.125,465.125,326.769,467.537z"/>
			<polygon fill="#E3DFF0" points="319.958,458.61 321.823,469.134 325.428,479.097 323.563,468.572 			"/>
			<polygon fill="#E3DFF0" points="313.129,471.941 322.941,469.786 332.255,465.766 322.443,467.921 			"/>
		</g>
	</g>
	<g id="Star">
		<path fill="#E3DFF0" d="M170.178,121.931c0.959,3.595-0.984,7.392-4.342,8.476c-3.357,1.085-6.858-0.953-7.818-4.548
			c-0.961-3.599,0.983-7.394,4.34-8.478C165.716,116.296,169.217,118.333,170.178,121.931z"/>
		<polygon fill="#E3DFF0" points="160.017,108.613 162.799,124.314 168.177,139.174 165.395,123.476 		"/>
		<polygon fill="#E3DFF0" points="149.83,128.5 164.468,125.285 178.361,119.287 163.725,122.505 		"/>
	</g>
</g>
<path id="Shadow" opacity="0.1" d="M364.231,161.192L159.643,367.26l140.82,140.819c89.124-15.803,167.093-78.489,198.053-170.307
	c3.368-9.99,6.071-20.044,8.158-30.113L364.231,161.192z"/>
<g id="Saturn_1_">
	<g>
		<circle fill="#FEC66F" cx="254.247" cy="258.592" r="144.071"/>
		<path fill="#FAAF6A" d="M239.078,115.329c12.195,26.723,33.878,52.569,63.211,72.478c29.334,19.909,61.359,30.515,90.698,31.98
			c-8.841-31.667-28.499-60.494-57.833-80.403C305.82,119.475,271.771,111.851,239.078,115.329z"/>
		<path fill="#FCB44E" d="M249.855,257.018c-50.476-34.258-88.905-71.349-101.688-95.927c-4.705,5.132-9.101,10.662-13.127,16.595
			c-44.684,65.837-27.535,155.431,38.302,200.114c65.836,44.684,155.43,27.536,200.114-38.302
			c5.089-7.496,9.365-15.304,12.869-23.315C361.817,318.898,307,295.802,249.855,257.018z"/>
		<path fill="#F7934F" d="M155.284,309.771c-22.252-32.305-34.009-68.17-35.723-102.396c-23.255,61.001-2.584,132.17,53.781,170.425
			c40.204,27.287,89.265,31.513,131.549,15.679C251.018,394.746,192.999,364.521,155.284,309.771z"/>
		<path fill="#F7934F" d="M214.167,292.185c51.82,35.17,126.876,48.098,158.687,48.176c0.2-0.289,0.404-0.571,0.602-0.862
			c5.089-7.496,9.365-15.304,12.869-23.315c-24.507,2.716-79.324-20.381-136.469-59.165
			c-50.476-34.258-88.905-71.349-101.688-95.927c-4.705,5.132-9.101,10.662-13.127,16.595c-6.459,9.518-11.618,19.532-15.533,29.836
			C136.506,231.384,170.903,262.82,214.167,292.185z"/>
		<path fill="#FAAA46" d="M393.814,294.492c0,0-101.266-22.307-141.049-46.307c40.547,33.255,117.75,57.154,137.003,59.393
			C392.006,301.156,393.814,294.492,393.814,294.492z"/>
		<path fill="#E39B40" d="M359.202,357.314c0,0-89.866-2.917-182.302-61.146c76.943,58.231,141.578,77.64,160.832,79.879
			C347.316,370.127,359.202,357.314,359.202,357.314z"/>
		<path fill="#FAAF6A" d="M175.656,137.805c-9.557,6.212-18.467,13.631-26.492,22.207c46.04,45.267,121.629,94.914,227.586,113.692
			C265.247,240.079,201.597,171.731,175.656,137.805z"/>
		<path opacity="0.1" d="M352.323,153.032c13.034,41.739,7.836,88.334-18.259,126.781c-46.037,67.832-139.657,84.609-209.107,37.474
			c-1.113-0.756-2.212-1.523-3.299-2.302c10.455,24.644,27.886,46.665,51.684,62.815c65.836,44.684,155.43,27.536,200.114-38.302
			C413.964,279.813,403.655,200.605,352.323,153.032z"/>
	</g>
	<path fill="#996730" d="M130.742,184.169c-11.297-3.428-18.787-3.712-21.15-0.231c-7.988,11.771,45.664,62.123,119.835,112.463
		c74.17,50.339,140.775,81.605,148.764,69.835c2.473-3.646-0.963-10.989-9.09-20.887c0.836-1.195,2.182-2.675,3.21-4.171
		c39.194,35.222,57.285,59.965,50.307,70.247c-12.081,17.8-101.582-20.957-204.141-90.563
		C115.918,251.255,42.571,180.397,54.652,162.597c6.487-9.559,36.286-1.874,78.368,18.068L130.742,184.169z"/>
	<path fill="#FAA753" d="M132.313,181.854c-11.297-3.428-18.787-3.712-21.149-0.23c-7.989,11.771,45.664,62.123,119.834,112.462
		c74.17,50.34,140.775,81.607,148.765,69.837c2.474-3.646-0.963-10.989-9.091-20.887c0.838-1.196,2.182-2.675,3.211-4.172
		c39.193,35.222,54.052,57.813,47.072,68.096c-12.08,17.801-98.348-18.806-200.907-88.412
		C117.49,248.941,44.142,178.083,56.223,160.282c6.487-9.558,36.286-1.874,78.368,18.068L132.313,181.854z"/>
	<path fill="#FEC66F" d="M114.009,175.715c0,0-49.315,10.11,87.881,101.347C147.029,248.844,57.754,172.226,114.009,175.715z"/>
	<path fill="#FCC274" d="M380.458,362.146c0,0,2.107,24.016-66.726-14.062C362.282,378.406,379.761,378.791,380.458,362.146z"/>
	<path fill="#F7934F" d="M217.501,304.687c0,0,151.658,99.331,175.824,89.418C380.646,399.511,319.526,381.569,217.501,304.687z"/>
</g>
</svg>
